<?xml version="1.0" encoding="UTF-8"?>
<svg viewBox="0 0 114 40" version="1.1" xmlns="http://www.w3.org/2000/svg" xmlns:xlink="http://www.w3.org/1999/xlink">
    <g id="Page-1" stroke="none" stroke-width="1" fill="none" fill-rule="evenodd">
        <g id="Онлайн-образование-СРО+Курсон-1440" transform="translate(-431.000000, -16.000000)">
            <g id="Group-16" transform="translate(431.000000, 16.000000)">
                <g id="as">
                    <path d="M113.104786,24.0506429 C112.728357,24.2220714 111.907643,24.4263571 110.846929,24.4263571 C107.767643,24.4263571 106.194071,22.5106429 106.194071,19.9792143 C106.194071,16.9685 108.349071,15.2585 111.017643,15.2585 C112.079071,15.2585 112.8655,15.4642143 113.206929,15.6685 L112.796929,17.2420714 C112.386214,17.0713571 111.839786,16.9349286 111.1205,16.9349286 C109.546929,16.9349286 108.281214,17.8920714 108.281214,19.8770714 C108.281214,21.6556429 109.341214,22.7506429 111.154786,22.7506429 C111.736214,22.7506429 112.4205,22.6485 112.796929,22.4763571 L113.104786,24.0506429 Z" id="Fill-1" fill="#000000"></path>
                    <polygon id="Fill-3" fill="#000000" points="99.8305 18.8162857 96.5455 18.8162857 96.5455 15.4291429 94.5276429 15.4291429 94.5276429 24.2905714 96.5455 24.2905714 96.5455 20.5612857 99.8305 20.5612857 99.8305 24.2905714 101.849071 24.2905714 101.849071 15.4291429 99.8305 15.4291429"></polygon>
                    <path d="M87.7874286,19.2951429 C87.6167143,19.3294286 87.3431429,19.3644286 87.0695714,19.3644286 C86.9324286,19.3644286 86.7617143,19.3294286 86.6252857,19.2951429 C85.9402857,19.1922857 85.4274286,18.7822857 85.4274286,18.0972857 C85.4274286,17.3451429 85.9402857,16.9687143 86.6252857,16.8665714 C86.7274286,16.8315714 86.8645714,16.8315714 87.001,16.8315714 C87.3774286,16.8315714 87.651,16.9001429 87.7874286,16.9001429 L87.7874286,19.2951429 Z M86.6252857,15.3608571 C85.701,15.4287143 84.8802857,15.6008571 84.3324286,16.0451429 C83.7852857,16.4558571 83.4088571,17.1058571 83.4088571,17.9265714 C83.4088571,19.1922857 84.2988571,19.8772857 85.291,20.0822857 L85.291,20.1165714 C85.0167143,20.2194286 84.7431429,20.3901429 84.5381429,20.5608571 C83.8881429,21.2115714 83.6824286,22.2722857 83.3067143,23.298 C83.2038571,23.6408571 83.0324286,23.9822857 82.8617143,24.2901429 L84.9824286,24.2901429 C85.1531429,24.0165714 85.2224286,23.8108571 85.3238571,23.5372857 C85.5645714,22.8194286 85.8045714,21.6558571 86.351,21.143 C86.4531429,21.0744286 86.5224286,21.0058571 86.6252857,20.9372857 C86.7952857,20.8351429 87.0352857,20.8008571 87.3095714,20.8008571 L87.7874286,20.8008571 L87.7874286,24.2901429 L89.8067143,24.2901429 L89.8067143,15.5315714 C89.1567143,15.4287143 88.1981429,15.3608571 87.2402857,15.3608571 L86.6252857,15.3608571 Z" id="Fill-5" fill="#000000"></path>
                    <path d="M75.9507857,22.8191429 C75.7800714,22.8527143 75.6086429,22.8877143 75.4379286,22.8877143 C75.1293571,22.8877143 74.8900714,22.8527143 74.6850714,22.8191429 L74.6850714,20.0141429 C74.9243571,20.0141429 75.1636429,19.9791429 75.4715,19.9791429 C75.6086429,19.9791429 75.7800714,19.9791429 75.9507857,20.0141429 C76.6686429,20.1505714 77.1822143,20.5612857 77.1822143,21.4162857 C77.1822143,22.2377143 76.6686429,22.682 75.9507857,22.8191429 M79.3036429,21.3141429 C79.3036429,19.3977143 77.7636429,18.4741429 75.9507857,18.4405714 L75.7800714,18.4405714 C75.4029286,18.4405714 74.9579286,18.4405714 74.6850714,18.5084286 L74.6850714,15.4291429 L72.7007857,15.4291429 L72.7007857,24.2555714 C73.1450714,24.3241429 73.8636429,24.3934286 74.8557857,24.3934286 C75.2322143,24.3934286 75.5743571,24.3584286 75.9507857,24.3241429 C76.9772143,24.222 77.9693571,23.8798571 78.5850714,23.2641429 C79.0300714,22.7848571 79.3036429,22.1691429 79.3036429,21.3141429" id="Fill-7" fill="#000000"></path>
                    <path d="M61.9577143,19.2951429 C61.9577143,20.6294286 61.8212857,21.7587143 61.3077143,22.3408571 C61.0684286,22.5801429 60.7262857,22.7508571 60.282,22.8194286 L60.5212857,24.4265714 C61.2398571,24.4265714 61.8555714,24.2558571 62.2998571,24.0165714 C63.6341429,23.1951429 63.942,21.4508571 63.942,19.158 L63.942,17.0715714 L65.927,17.0715714 L65.927,24.2901429 L67.9455714,24.2901429 L67.9455714,15.4287143 L61.9577143,15.4287143 L61.9577143,19.2951429 Z" id="Fill-9" fill="#000000"></path>
                    <path d="M52.9258571,20.5267143 L51.968,20.5267143 L52.4808571,18.611 C52.618,18.0974286 52.7544286,17.4474286 52.8915714,16.9002857 L52.9258571,16.9002857 L52.9258571,17.0031429 C53.063,17.516 53.2337143,18.1317143 53.3708571,18.611 L53.918,20.5267143 L52.9258571,20.5267143 Z M54.2944286,15.4288571 L52.9258571,15.4288571 L51.6601429,15.4288571 L48.9572857,24.2902857 L51.0444286,24.2902857 L51.6601429,21.9981429 L52.9258571,21.9981429 L54.2258571,21.9981429 L54.9101429,24.2902857 L57.0315714,24.2902857 L54.2944286,15.4288571 Z" id="Fill-11" fill="#000000"></path>
                    <path d="M112.933929,27.4375714 L111.086786,30.3804286 C110.675357,31.0297143 110.298929,31.6461429 110.026071,32.2618571 L110.026071,32.2268571 C110.059643,31.4747143 110.059643,30.7225714 110.059643,29.8318571 L110.059643,27.4375714 L109.375357,27.4375714 L109.375357,33.1168571 L110.1625,33.1168571 L111.941786,30.3111429 C112.351786,29.6611429 112.728214,29.0118571 113.0025,28.3954286 L113.036786,28.3954286 C112.968214,29.114 112.968214,29.7982857 112.968214,30.7225714 L112.968214,33.1168571 L113.651786,33.1168571 L113.651786,27.4375714 L112.933929,27.4375714 Z" id="Fill-13" fill="#000000"></path>
                    <polygon id="Fill-15" fill="#000000" points="103.970071 30.4485714 106.160071 30.4485714 106.160071 29.8671429 103.970071 29.8671429 103.970071 28.0535714 106.2965 28.0535714 106.2965 27.4378571 103.217214 27.4378571 103.217214 33.1171429 106.433643 33.1171429 106.433643 32.5014286 103.970071 32.5014286"></polygon>
                    <path d="M96.5806429,29.8319286 C96.5806429,30.7562143 96.5456429,31.8512143 96.1006429,32.2955 C95.9642143,32.4326429 95.7249286,32.5697857 95.4849286,32.6033571 L95.5885,33.1847857 C95.9299286,33.1847857 96.2385,33.0483571 96.4435,32.9119286 C97.2649286,32.3983571 97.2985,30.9955 97.2985,29.7640714 L97.2985,28.0533571 L99.1806429,28.0533571 L99.1806429,33.1169286 L99.9327857,33.1169286 L99.9327857,27.4376429 L96.5806429,27.4376429 L96.5806429,29.8319286 Z" id="Fill-17" fill="#000000"></path>
                    <polygon id="Fill-19" fill="#000000" points="90.7645 30.4485714 92.9880714 30.4485714 92.9880714 29.8671429 90.7645 29.8671429 90.7645 28.0535714 93.0909286 28.0535714 93.0909286 27.4378571 90.0459286 27.4378571 90.0459286 33.1171429 93.2273571 33.1171429 93.2273571 32.5014286 90.7645 32.5014286"></polygon>
                    <polygon id="Fill-21" fill="#000000" points="83.169 28.0535714 84.914 28.0535714 84.914 33.1171429 85.6325714 33.1171429 85.6325714 28.0535714 87.3775714 28.0535714 87.3775714 27.4378571 83.169 27.4378571"></polygon>
                    <path d="M77.9691429,30.3802143 C77.5584286,31.0295 77.182,31.6459286 76.9084286,32.2616429 L76.8741429,32.2266429 C76.9427143,31.4745 76.9427143,30.7223571 76.9427143,29.8316429 L76.9427143,27.4373571 L76.2584286,27.4373571 L76.2584286,33.1173571 L77.0455714,33.1173571 L78.8241429,30.3116429 C79.2012857,29.6609286 79.6112857,29.0116429 79.8848571,28.3959286 L79.9184286,28.3959286 C79.8505714,29.1145 79.8505714,29.7980714 79.8505714,30.7223571 L79.8505714,33.1173571 L80.5348571,33.1173571 L80.5348571,27.4373571 L79.7827143,27.4373571 L77.9691429,30.3802143 Z" id="Fill-23" fill="#000000"></path>
                    <path d="M70.7160714,32.6036429 L70.6810714,32.6036429 C69.5532143,32.6036429 68.8689286,31.5429286 68.8689286,30.3115 C68.8689286,29.0793571 69.4839286,27.9507857 70.7160714,27.9507857 C71.9139286,27.9507857 72.5296429,29.1143571 72.5296429,30.2429286 C72.5296429,31.5429286 71.8789286,32.6036429 70.7160714,32.6036429 M70.7503571,27.3350714 L70.7160714,27.3350714 C69.2110714,27.3693571 68.1160714,28.5322143 68.1160714,30.3450714 C68.1160714,32.0557857 69.1425,33.2193571 70.6482143,33.2193571 L70.7160714,33.2193571 C72.1189286,33.1850714 73.2825,32.1593571 73.2825,30.2086429 C73.2825,28.5322143 72.2903571,27.3350714 70.7503571,27.3350714" id="Fill-25" fill="#000000"></path>
                    <path d="M63.7025714,30.2772857 C63.5661429,30.3115714 63.4297143,30.3115714 63.2918571,30.3115714 C63.0182857,30.3115714 62.8475714,30.2772857 62.6761429,30.243 L62.6761429,28.0537143 C62.8125714,28.0187143 63.0532857,27.9851429 63.3604286,27.9851429 L63.7025714,27.9851429 C64.3182857,28.088 64.6947143,28.4637143 64.6947143,29.0794286 C64.6947143,29.7644286 64.3182857,30.1408571 63.7025714,30.2772857 M63.7025714,27.4044286 L63.3604286,27.4044286 C62.7447143,27.4044286 62.2997143,27.4372857 61.924,27.5058571 L61.924,33.1172857 L62.6761429,33.1172857 L62.6761429,30.8587143 C62.8475714,30.893 63.0532857,30.893 63.2575714,30.893 C63.3954286,30.893 63.5661429,30.893 63.7025714,30.8587143 C64.2161429,30.7901429 64.6947143,30.6194286 65.0032857,30.2772857 C65.2768571,29.9694286 65.4468571,29.5587143 65.4468571,29.0458571 C65.4468571,28.5665714 65.2425714,28.1565714 64.934,27.8822857 C64.6611429,27.6087143 64.2504286,27.4722857 63.7025714,27.4044286" id="Fill-27" fill="#000000"></path>
                    <polygon id="Fill-29" fill="#000000" points="55.1155 28.0535714 56.8262143 28.0535714 56.8262143 33.1171429 57.5447857 33.1171429 57.5447857 28.0535714 59.2890714 28.0535714 59.2890714 27.4378571 55.1155 27.4378571"></polygon>
                    <path d="M51.5234286,27.9506429 C52.002,27.9506429 52.3784286,28.0535 52.6527143,28.1899286 L52.8577143,27.6085 C52.6527143,27.5056429 52.2077143,27.3349286 51.4891429,27.3349286 C49.7441429,27.3349286 48.5127143,28.5663571 48.5127143,30.3456429 C48.5127143,32.1935 49.7441429,33.2192143 51.3177143,33.2192143 C52.037,33.2192143 52.5498571,33.0827857 52.8234286,32.9463571 L52.6862857,32.3642143 C52.3784286,32.5013571 51.9334286,32.6035 51.4891429,32.6035 C50.0862857,32.6035 49.2991429,31.7142143 49.2991429,30.3113571 C49.2991429,28.8056429 50.1891429,27.9506429 51.5234286,27.9506429" id="Fill-31" fill="#000000"></path>
                    <polygon id="Fill-33" fill="#000000" points="110.743571 26.8563571 112.283571 26.8563571 112.283571 26.3085 110.743571 26.3085"></polygon>
                    <polygon id="Fill-35" fill="#E01F26" points="39.0018571 0 39.0018571 33.2192857 17.8582857 33.2192857"></polygon>
                    <path d="M11.0508571,0 L37.8722857,0 L0.000142857143,39.6171429 L0.000142857143,11.7685714 C0.000142857143,11.7685714 1.02657143,0.615 11.0508571,0" id="Fill-36" fill="#E01F26"></path>
                </g>
            </g>
        </g>
    </g>
</svg>