<?xml version="1.0" encoding="UTF-8"?>
<svg viewBox="0 0 66 54" version="1.1" xmlns="http://www.w3.org/2000/svg" xmlns:xlink="http://www.w3.org/1999/xlink">
    <defs>
        <polygon id="path-1" points="0 53 64 53 64 0 0 0"></polygon>
    </defs>
    <g id="Page-1" stroke="none" stroke-width="1" fill="none" fill-rule="evenodd">
        <g id="Онлайн-образование-СРО+Курсон-1440" transform="translate(-330.000000, -1941.000000)">
            <g id="Group-10" transform="translate(214.000000, 1886.000000)">
                <g id="biz" transform="translate(117.000000, 55.000000)">
                    <path d="M40.3481043,30.6839316 L23.6524522,30.6839316" id="Stroke-7" stroke="#FFFFFF" stroke-width="3"></path>
                    <path d="M16.6959304,30.6839316 L13.9133217,30.6839316 C9.26914783,30.6839316 1.39158261,28.1552737 1.39158261,23.7102474 L1.39158261,11.1576158 C1.39158261,9.61782632 2.6368,8.36814211 4.1741913,8.36814211 L59.8263652,8.36814211 C61.3623652,8.36814211 62.6089739,9.61782632 62.6089739,11.1576158 L62.6089739,23.7102474 C62.6089739,28.1552737 54.7314087,30.6839316 50.0872348,30.6839316 L47.3046261,30.6839316" id="Stroke-8" stroke="#FFFFFF" stroke-width="3"></path>
                    <path d="M61.2176696,26.4997211 L61.2176696,47.4207737 C61.2176696,49.7318526 59.3491478,51.6049842 57.0437565,51.6049842 L6.9568,51.6049842 C4.6514087,51.6049842 2.78288696,49.7318526 2.78288696,47.4207737 L2.78288696,26.4997211" id="Stroke-1" stroke="#FFFFFF" stroke-width="3"></path>
                    <mask id="mask-2" fill="white">
                        <use xlink:href="#path-1"></use>
                    </mask>
                    <g id="Clip-4"></g>
                    <polygon id="Stroke-3" stroke="#76BC21" stroke-width="3" mask="url(#mask-2)" points="16.6956522 36.2631579 23.6521739 36.2631579 23.6521739 29.2894737 16.6956522 29.2894737"></polygon>
                    <polygon id="Stroke-5" stroke="#76BC21" stroke-width="3" mask="url(#mask-2)" points="40.3478261 36.2631579 47.3043478 36.2631579 47.3043478 29.2894737 40.3478261 29.2894737"></polygon>
                    <path d="M40.3481043,8.36814211 L40.3481043,4.18393158 C40.3481043,2.64414211 39.1014957,1.39445789 37.5654957,1.39445789 L25.0437565,1.39445789 C23.5077565,1.39445789 22.2611478,2.64414211 22.2611478,4.18393158 L22.2611478,8.36814211" id="Stroke-6" stroke="#76BC21" stroke-width="3" mask="url(#mask-2)"></path>
                </g>
            </g>
        </g>
    </g>
</svg>