<svg width="18" height="13" viewBox="0 0 18 13" fill="none" xmlns="http://www.w3.org/2000/svg">
<rect width="15" height="11" fill="black" fill-opacity="0" transform="translate(1 1)"/>
<path fill-rule="evenodd" clip-rule="evenodd" d="M1.49563 1H4.50437C4.77669 1 5 1.17159 5 1.38162V11.618C5 11.8277 4.77669 12 4.50437 12H1.49563C1.22331 12 1 11.8281 1 11.618V1.38162C1 1.17159 1.22285 1 1.49563 1Z" stroke="white" stroke-width="2"/>
<path fill-rule="evenodd" clip-rule="evenodd" d="M3 8C3.55226 8 4 8.22392 4 8.5001C4 8.77629 3.55226 9 3 9C2.44816 9 2 8.77629 2 8.5001C2 8.22392 2.44816 8 3 8Z" stroke="white" stroke-width="2"/>
<path fill-rule="evenodd" clip-rule="evenodd" d="M5.49603 1H8.50397C8.77672 1 9 1.17159 9 1.38162V11.618C9 11.8277 8.77672 12 8.50397 12H5.49603C5.22328 12 5 11.8281 5 11.618V1.38162C5 1.17159 5.22328 1 5.49603 1Z" stroke="white" stroke-width="2"/>
<path fill-rule="evenodd" clip-rule="evenodd" d="M7.00021 8C7.55193 8 8 8.22392 8 8.5001C8 8.77629 7.55193 9 7.00021 9C6.44807 9 6 8.77629 6 8.5001C6 8.22392 6.44807 8 7.00021 8Z" stroke="white" stroke-width="2"/>
<path fill-rule="evenodd" clip-rule="evenodd" d="M9.3504 1.59894L12.1222 1.0126C12.3734 0.95964 12.6344 1.07855 12.7015 1.27673L15.9839 10.9441C16.0514 11.1422 15.9007 11.3479 15.6496 11.4009L12.8773 11.9872C12.6262 12.0405 12.3656 11.922 12.2985 11.7235L9.01615 2.05611C8.9486 1.85759 9.09928 1.6519 9.3504 1.59894Z" stroke="white" stroke-width="2"/>
<path fill-rule="evenodd" clip-rule="evenodd" d="M12.7412 8.01717C13.2742 7.94569 13.8227 8.10391 13.9657 8.37041C14.1086 8.63732 13.7922 8.91135 13.2583 8.98283C12.7254 9.05431 12.1769 8.89609 12.0343 8.62938C11.8914 8.36268 12.2078 8.08866 12.7412 8.01717Z" stroke="white" stroke-width="2"/>
</svg>
