<?xml version="1.0" encoding="UTF-8"?>
<svg viewBox="0 0 120 120" version="1.1" xmlns="http://www.w3.org/2000/svg" xmlns:xlink="http://www.w3.org/1999/xlink">
    <g id="Page-1" stroke="none" stroke-width="1" fill="none" fill-rule="evenodd">
        <g id="Онлайн-образование-СРО+Курсон-1440" transform="translate(-267.000000, -4766.000000)">
            <g id="Group-14" transform="translate(0.000000, 4606.000000)">
                <g id="Group-6" transform="translate(177.000000, 160.000000)">
                    <g id="3steps-icon-1" transform="translate(90.000000, 0.000000)">
                        <circle id="Oval" fill-opacity="0.2" fill="#000000" fill-rule="nonzero" cx="60" cy="60" r="60"></circle>
                        <g id="Group-5" transform="translate(37.000000, 39.000000)">
                            <path d="M34.9999,25.0002 C34.9999,25.0002 24.9999,22.0432 24.9999,22.0002 L24.9999,13.0002 C24.9999,11.3472 23.6859,10.0072 22.0349,10.0002 C20.3829,10.0072 18.9999,11.3472 18.9999,13.0002 L18.9999,30.0002 L17.9999,30.0002 C17.8129,29.7922 15.6789,25.3792 12.9999,25.0002 C10.5499,24.6522 9.4179,27.1282 10.9999,30.0002 C12.5819,32.8712 17.9759,42.0002 18.0129,42.0002 L34.9999,42.0002 C35.2729,42.0002 36.9999,38.5572 36.9999,37.0002 L36.9999,28.0002 C36.9999,26.5882 36.2899,25.5742 34.9999,25.0002 Z" id="Stroke-1" stroke="#FFFFFF" stroke-width="2"></path>
                            <path d="M9.9999,34.0002 L2.9999,34.0002 C1.3429,34.0002 -0.0001,32.6562 -0.0001,31.0002 L-0.0001,3.0002 C-0.0001,1.3432 1.3429,0.0002 2.9999,0.0002 L42.9999,0.0002 C44.6569,0.0002 45.9999,1.3432 45.9999,3.0002 L45.9999,31.0002 C45.9999,32.6562 44.6569,34.0002 42.9999,34.0002 L39.9999,34.0002" id="Stroke-3" stroke="#76BC21" stroke-width="3"></path>
                        </g>
                    </g>
                </g>
            </g>
        </g>
    </g>
</svg>