<?xml version="1.0" encoding="UTF-8"?>
<svg viewBox="0 0 120 120" version="1.1" xmlns="http://www.w3.org/2000/svg" xmlns:xlink="http://www.w3.org/1999/xlink">
    <g id="Page-1" stroke="none" stroke-width="1" fill="none" fill-rule="evenodd">
        <g id="Онлайн-образование-СРО+Курсон-1440" transform="translate(-660.000000, -4766.000000)">
            <g id="Group-14" transform="translate(0.000000, 4606.000000)">
                <g id="Group-6-Copy" transform="translate(570.000000, 160.000000)">
                    <g id="3steps-icon-2" transform="translate(90.000000, 0.000000)">
                        <circle id="Oval" fill-opacity="0.2" fill="#000000" fill-rule="nonzero" cx="60" cy="60" r="60"></circle>
                        <g id="Group-18" transform="translate(37.000000, 40.000000)">
                            <polyline id="Stroke-1" stroke="#76BC21" stroke-width="3" points="14.0002 27.0001 4.0002 27.0001 4.0002 4.0001 37.0002 4.0001 37.0002 19.0001"></polyline>
                            <polygon id="Stroke-2" stroke="#FFFFFF" stroke-width="2" points="17.0002 10.0001 17.0002 20.0001 25.0002 15.0001"></polygon>
                            <path d="M30.0002,21.0001 L30.0002,25.0001" id="Stroke-3" stroke="#76BC21" stroke-width="3"></path>
                            <path d="M22.0002,23.1436 L24.0002,26.6076" id="Stroke-4" stroke="#76BC21" stroke-width="3"></path>
                            <path d="M16.1437,29.0001 L19.6077,31.0001" id="Stroke-5" stroke="#76BC21" stroke-width="3"></path>
                            <path d="M38.0002,23.1436 L36.0002,26.6076" id="Stroke-6" stroke="#76BC21" stroke-width="3"></path>
                            <g id="Group-17">
                                <path d="M33.0002,37.0001 C33.0002,38.6571 31.6572,40.0001 30.0002,40.0001 C28.3432,40.0001 27.0002,38.6571 27.0002,37.0001 C27.0002,35.3431 28.3432,34.0001 30.0002,34.0001 C31.6572,34.0001 33.0002,35.3431 33.0002,37.0001 Z" id="Stroke-7" stroke="#76BC21" stroke-width="3"></path>
                                <path d="M32.6613,35.6329 L41.0003,30.9999" id="Stroke-9" stroke="#76BC21" stroke-width="3"></path>
                                <path d="M24.592,40.1153 L27.429,38.5393" id="Stroke-11" stroke="#76BC21" stroke-width="3"></path>
                                <path d="M42.0002,37.0001 L46.0002,37.0001 C46.0002,28.1631 38.8362,21.0001 30.0002,21.0001 C21.1632,21.0001 14.0002,28.1631 14.0002,37.0001 L18.0002,37.0001" id="Stroke-13" stroke="#76BC21" stroke-width="3"></path>
                                <polyline id="Stroke-15" stroke="#FFFFFF" stroke-width="2" points="41.0002 21.0001 41.0002 0.0001 0.0002 0.0001 0.0002 31.0001 12.0002 31.0001"></polyline>
                            </g>
                        </g>
                    </g>
                </g>
            </g>
        </g>
    </g>
</svg>