<svg viewBox="0 0 49 54" version="1.1" xmlns="http://www.w3.org/2000/svg" xmlns:xlink="http://www.w3.org/1999/xlink">
    <g id="Page-1" stroke="none" stroke-width="1" fill="none" fill-rule="evenodd">
        <g id="Онлайн-образование-ТП+Курсон-1440" transform="translate(-749.000000, -241.000000)" fill="#FFFFFF" fill-rule="nonzero">
            <g id="Group-5" transform="translate(749.000000, 240.000000)">
                <g id="gift" transform="translate(0.000000, 1.000000)">
                    <path d="M26.2800348,29.5673203 L45.8030592,29.5673203 L45.8030592,54 L26.2800348,54 L26.2800348,29.5673203 Z M3.19694082,29.5673203 L22.7199652,29.5673203 L22.7199652,54 L3.19694082,54 L3.19694082,29.5673203 Z M39.7204917,9.959625 L49,9.959625 L49,26.0456133 L26.2799282,26.0456133 L26.2799282,9.959625 L22.7199652,9.959625 L22.7199652,26.0456133 L0,26.0456133 L0,9.959625 L9.27940165,9.959625 C8.75123368,9.00249609 8.45079417,7.90562109 8.45079417,6.74061328 C8.45079417,3.02389453 11.507537,0 15.2646301,0 C18.0436423,0 20.886943,1.42045312 23.065396,3.89717578 C23.6045453,4.51005469 24.0847367,5.16870703 24.5,5.85467578 C24.9152633,5.16870703 25.3954547,4.51005469 25.934604,3.89717578 C28.113057,1.42045312 30.9564643,0 33.7353699,0 C37.492463,0 40.5492058,3.02378906 40.5490992,6.74061328 C40.5490992,7.90572656 40.2485531,9.00249609 39.7204917,9.959625 Z M15.2646301,9.959625 L15.2646301,9.95951953 L22.4599326,9.95951953 C21.5661836,6.7905 18.4949413,3.52170703 15.2646301,3.52170703 C13.4705222,3.52170703 12.0107572,4.96567969 12.0107572,6.74061328 C12.0107572,8.51554688 13.4705222,9.959625 15.2646301,9.959625 Z M33.7353699,9.959625 C35.5294778,9.959625 36.9891362,8.51565234 36.9892428,6.74071875 C36.9892428,4.96589062 35.5294778,3.5218125 33.7353699,3.5218125 C30.5050587,3.5218125 27.4338164,6.7905 26.5400674,9.959625 L33.7353699,9.959625 Z" id="Combined-Shape"></path>
                </g>
            </g>
        </g>
    </g>
</svg>