<?xml version="1.0" encoding="UTF-8"?>
<svg viewBox="0 0 112 40" version="1.1" xmlns="http://www.w3.org/2000/svg" xmlns:xlink="http://www.w3.org/1999/xlink">
    <defs>
        <polygon id="path-1" points="0.000208181623 0.188965517 37.6311184 0.188965517 37.6311184 39.3102759 0.000208181623 39.3102759 0.000208181623 0.188965517"></polygon>
        <polygon id="path-3" points="0 39.3103448 111.16066 39.3103448 111.16066 0.188965517 0 0.188965517"></polygon>
    </defs>
    <g id="Page-1" stroke="none" stroke-width="1" fill="none" fill-rule="evenodd">
        <g id="Онлайн-образование-СРО+Курсон-1440" transform="translate(-788.000000, -16.000000)">
            <g id="Group-16" transform="translate(431.000000, 16.000000)">
                <g id="li" transform="translate(357.000000, 0.000000)">
                    <polygon id="Fill-1" fill="#09A54C" points="38.7530092 0.689655172 17.7454016 33.4937931 38.7530092 33.4937931"></polygon>
                    <g id="Group-23" transform="translate(0.000000, 0.500759)">
                        <g id="Group-4">
                            <mask id="mask-2" fill="white">
                                <use xlink:href="#path-1"></use>
                            </mask>
                            <g id="Clip-3"></g>
                            <path d="M10.9804009,0.188896552 L37.6311184,0.188896552 L0.000208181623,39.3102759 L0.000208181623,11.8109655 C0.000208181623,11.8109655 1.0196042,0.796482759 10.9804009,0.188896552" id="Fill-2" fill="#09A54C" mask="url(#mask-2)"></path>
                        </g>
                        <path d="M48.987426,27.7128276 L48.987426,30.1121379 C48.987426,31.0066207 48.9707715,31.7590345 48.91942,32.5190345 L48.9450957,32.5273103 C49.225447,31.9273103 49.5821315,31.3190345 49.9991887,30.6438621 L51.8513112,27.7128276 L52.5910499,27.7128276 L52.5910499,33.405931 L51.8936415,33.405931 L51.8936415,30.9817931 C51.8936415,30.0611034 51.9026627,29.3852414 51.9623414,28.668 L51.9366657,28.6590345 C51.6563144,29.2838621 51.264933,29.9342069 50.8742454,30.5762759 L49.0811077,33.405931 L48.2907115,33.405931 L48.2907115,27.7128276 L48.987426,27.7128276 Z" id="Fill-5" fill="#000000"></path>
                        <path d="M54.6812628,28.0508966 C55.0719503,27.7971034 55.5653408,27.6198621 56.1940493,27.6198621 C57.1884635,27.6198621 57.8768507,28.1357241 57.8768507,29.0136552 C57.8768507,29.7143448 57.3584785,30.2467586 56.7040942,30.4074483 L56.7040942,30.424 C57.5028177,30.5088276 58.0982172,31.0322759 58.0982172,31.8433103 C58.0982172,33.026069 57.0607788,33.4984828 56.015707,33.4984828 C55.4973348,33.4984828 54.962308,33.3881379 54.520269,33.1267586 L54.7152658,32.5522759 C55.02962,32.7295172 55.5313378,32.8991724 56.0073797,32.8991724 C56.8491274,32.8991724 57.3161482,32.4433103 57.3161482,31.8177931 C57.3161482,30.9736552 56.491749,30.7281379 55.7520103,30.7281379 L55.4119803,30.7281379 L55.4119803,30.1626207 L55.7520103,30.1626207 C56.5084035,30.1626207 57.103803,29.6977931 57.103803,29.1143448 C57.103803,28.5322759 56.6874397,28.2198621 56.0753857,28.2198621 C55.641674,28.2198621 55.199635,28.3971034 54.8852808,28.5915862 L54.6812628,28.0508966 Z" id="Fill-7" fill="#000000"></path>
                        <mask id="mask-4" fill="white">
                            <use xlink:href="#path-3"></use>
                        </mask>
                        <g id="Clip-10"></g>
                        <path d="M64.369064,33.4055172 L65.11713,33.4055172 L65.11713,27.7124138 L64.369064,27.7124138 L64.369064,33.4055172 Z M60.8424673,32.84 C60.9951339,32.8737931 61.1908246,32.882069 61.4371728,32.882069 C62.2532448,32.882069 62.9589805,32.4682759 62.9589805,31.6068966 C62.9589805,30.72 62.19426,30.3910345 61.4288456,30.3910345 C61.1568216,30.3910345 60.9361491,30.4158621 60.8424673,30.4241379 L60.8424673,32.84 Z M60.8424673,27.7131034 L60.8424673,29.8496552 C61.0124823,29.8158621 61.3441851,29.7986207 61.5308546,29.7986207 C62.704305,29.7986207 63.7320283,30.3227586 63.7320283,31.5813793 C63.7320283,32.1048276 63.5620133,32.4937931 63.2906832,32.7889655 C62.8229685,33.2793103 62.0235511,33.4565517 61.2505033,33.4565517 C60.7404583,33.4565517 60.3504648,33.422069 60.1034226,33.3882759 L60.1034226,27.7131034 L60.8424673,27.7131034 Z" id="Fill-9" fill="#000000" mask="url(#mask-4)"></path>
                        <path d="M71.4574401,33.2196552 C71.1937434,33.3548276 70.6413682,33.49 69.9446537,33.49 C68.3298582,33.49 67.1230987,32.4762069 67.1230987,30.61 C67.1230987,28.827931 68.3388794,27.6286207 70.1146687,27.6286207 C70.8204044,27.6286207 71.2790979,27.7803448 71.4740947,27.8734483 L71.2874251,28.4817241 C71.0154012,28.3465517 70.6156924,28.2451724 70.1403444,28.2451724 C68.7975729,28.2451724 67.9051677,29.0982759 67.9051677,30.5844828 C67.9051677,31.9782759 68.7115245,32.8651724 70.0980141,32.8651724 C70.5567076,32.8651724 71.0154012,32.7727586 71.3131009,32.6286207 L71.4574401,33.2196552 Z" id="Fill-11" fill="#000000" mask="url(#mask-4)"></path>
                        <path d="M74.1511716,27.7128276 L74.1511716,30.2390345 L74.3808653,30.2390345 L76.344018,27.7128276 L77.227402,27.7128276 L75.0602313,30.3231724 C76.0123153,30.4493793 76.3773271,31.0238621 76.6666995,31.7921379 C76.888066,32.3748966 77.0490598,32.8990345 77.295408,33.405931 L76.5050118,33.405931 C76.2933605,33.0169655 76.14,32.510069 75.9783123,32.0624828 C75.7146155,31.3114483 75.357931,30.7955862 74.3891925,30.7955862 L74.1511716,30.7955862 L74.1511716,33.405931 L73.4114329,33.405931 L73.4114329,27.7128276 L74.1511716,27.7128276 Z" id="Fill-12" fill="#000000" mask="url(#mask-4)"></path>
                        <path d="M81.8841474,31.0408966 L81.3151176,29.4022759 C81.1957601,29.0305517 81.1110996,28.6926207 81.0264391,28.3636552 L81.0007633,28.3636552 C80.925124,28.6926207 80.8307483,29.0471034 80.7204121,29.394 L80.1597096,31.0408966 L81.8841474,31.0408966 Z M80.0063491,31.6153793 L79.4116436,33.4057241 L78.6462292,33.4057241 L80.5934213,27.7126207 L81.4851326,27.7126207 L83.440652,33.4057241 L82.6495618,33.4057241 L82.0375078,31.6153793 L80.0063491,31.6153793 Z" id="Fill-13" fill="#000000" mask="url(#mask-4)"></path>
                        <polygon id="Fill-14" fill="#000000" mask="url(#mask-4)" points="86.0148871 28.3381379 84.2724069 28.3381379 84.2724069 27.7126207 88.5130666 27.7126207 88.5130666 28.3381379 86.7622592 28.3381379 86.7622592 33.4057241 86.0148871 33.4057241"></polygon>
                        <polygon id="Fill-15" fill="#000000" mask="url(#mask-4)" points="93.1284532 30.7368276 90.909931 30.7368276 90.909931 32.7892414 93.3921499 32.7892414 93.3921499 33.4057931 90.1618651 33.4057931 90.1618651 27.7126897 93.2644652 27.7126897 93.2644652 28.3292414 90.909931 28.3292414 90.909931 30.1285517 93.1284532 30.1285517"></polygon>
                        <path d="M99.3569698,27.7128276 L99.3569698,33.405931 L98.6095978,33.405931 L98.6095978,28.3293793 L96.7220844,28.3293793 L96.7220844,30.0521379 C96.7220844,31.2942069 96.6630996,32.6624828 95.8643761,33.2031724 C95.6513369,33.3383448 95.3120009,33.4728276 94.9802981,33.4728276 L94.8873103,32.8817931 C95.1170041,32.848 95.3543311,32.7128276 95.4903431,32.5783448 C95.9497306,32.1383448 95.9920608,31.0238621 95.9920608,30.1121379 L95.9920608,27.7128276 L99.3569698,27.7128276 Z" id="Fill-16" fill="#000000" mask="url(#mask-4)"></path>
                        <polygon id="Fill-17" fill="#000000" mask="url(#mask-4)" points="104.617719 30.7368276 102.399197 30.7368276 102.399197 32.7892414 104.880722 32.7892414 104.880722 33.4057931 101.651825 33.4057931 101.651825 27.7126897 104.753037 27.7126897 104.753037 28.3292414 102.399197 28.3292414 102.399197 30.1285517 104.617719 30.1285517"></polygon>
                        <path d="M108.49302,26.5136552 C108.527023,26.7757241 108.611684,27.0371034 109.010699,27.0371034 C109.402774,27.0371034 109.495762,26.7922759 109.530459,26.5136552 L110.098795,26.5136552 C110.056464,27.0791724 109.716434,27.426069 108.994044,27.426069 C108.29733,27.426069 107.965627,27.0715862 107.923297,26.5136552 L108.49302,26.5136552 Z M107.557591,27.7129655 L107.557591,30.1115862 C107.557591,31.0067586 107.540936,31.7584828 107.490279,32.5191724 L107.515261,32.5274483 C107.795612,31.9274483 108.15299,31.3191724 108.569354,30.644 L110.42217,27.7129655 L111.161215,27.7129655 L111.161215,33.406069 L110.4645,33.406069 L110.4645,30.981931 C110.4645,30.0612414 110.473522,29.3853793 110.532506,28.6681379 L110.506831,28.6591724 C110.226479,29.284 109.835792,29.9343448 109.44441,30.5764138 L107.651967,33.406069 L106.860876,33.406069 L106.860876,27.7129655 L107.557591,27.7129655 Z" id="Fill-18" fill="#000000" mask="url(#mask-4)"></path>
                        <path d="M55.610655,15.958069 L55.610655,24.813931 L53.6010084,24.813931 L53.6010084,17.6008276 L51.5781769,17.6008276 L51.5781769,19.7028966 C51.5781769,21.976 51.2874166,23.736 49.9390936,24.5242759 C49.4894213,24.773931 48.8815309,24.958069 48.167468,24.958069 L47.9162622,23.3422069 C48.3527496,23.2891034 48.7094341,23.1056552 48.9342703,22.8691034 C49.4762365,22.3173793 49.6087788,21.173931 49.6087788,19.833931 L49.6087788,15.958069 L55.610655,15.958069 Z" id="Fill-19" fill="#000000" mask="url(#mask-4)"></path>
                        <path d="M60.805758,15.958069 L60.805758,18.5863448 C60.805758,20.0049655 60.7655095,21.4104828 60.7002793,22.5932414 L60.7398338,22.5932414 C61.2151818,21.5553103 61.8105813,20.3863448 62.3393626,19.4401379 L64.2560214,15.958069 L66.3184074,15.958069 L66.3184074,24.813931 L64.4676727,24.813931 L64.4676727,22.1987586 C64.4676727,20.8325517 64.4940424,19.6235862 64.6127059,18.4677241 L64.5738454,18.4677241 C64.1630336,19.5187586 63.581513,20.6877241 63.0534256,21.6208276 L61.2415515,24.813931 L58.9550233,24.813931 L58.9550233,15.958069 L60.805758,15.958069 Z" id="Fill-20" fill="#000000" mask="url(#mask-4)"></path>
                        <polygon id="Fill-21" fill="#000000" mask="url(#mask-4)" points="75.0569004 15.958069 75.0569004 17.6008276 71.685746 17.6008276 71.685746 24.813931 69.6760994 24.813931 69.6760994 15.958069"></polygon>
                        <path d="M81.0455224,21.0425517 L80.4903714,19.163931 C80.3446442,18.6384138 80.1864262,17.968069 80.0538839,17.4563448 L80.0143294,17.4563448 C79.8956659,17.9818621 79.7499387,18.6515172 79.6167025,19.163931 L79.0754303,21.0425517 L81.0455224,21.0425517 Z M78.78467,22.5411724 L78.1642887,24.8135862 L76.0748392,24.8135862 L78.7985487,15.9577241 L81.4285766,15.9577241 L84.2050255,24.8135862 L82.0371608,24.8135862 L81.3487736,22.5411724 L78.78467,22.5411724 Z" id="Fill-22" fill="#000000" mask="url(#mask-4)"></path>
                    </g>
                </g>
            </g>
        </g>
    </g>
</svg>