<?xml version="1.0" encoding="UTF-8"?>
<svg viewBox="0 0 74 67" version="1.1" xmlns="http://www.w3.org/2000/svg" xmlns:xlink="http://www.w3.org/1999/xlink">
    <g id="Page-1" stroke="none" stroke-width="1" fill="none" fill-rule="evenodd">
        <g id="Онлайн-образование-СРО+Курсон-1440" transform="translate(-1035.000000, -1934.000000)" stroke-width="3">
            <g id="Group-9" transform="translate(926.000000, 1886.000000)">
                <g id="personal" transform="translate(113.000000, 50.000000)">
                    <polygon id="Stroke-1" stroke="#76BC21" points="33.4698 30.0973707 38.2068 41.5083951 50.1063 42.2841512 41.1333 50.590639 43.7523 62.0001512 33.4698 56.2023951 23.1888 62.0001512 25.8078 50.590639 16.8333 42.2841512 28.7343 41.5083951"></polygon>
                    <polyline id="Stroke-3" stroke="#76BC21" points="44.1075 36.3159707 48.0345 36.0604098 51.9525 26.6212878 55.869 36.0604098 65.715 36.7015805 58.2915 43.5729951 60.4575 53.0121171 51.9525 48.2154341 47.193 50.8995805"></polyline>
                    <polyline id="Stroke-5" stroke="#76BC21" points="21.60675 36.3159707 17.67975 36.0604098 13.76325 26.6212878 9.84525 36.0604098 0.00075 36.7015805 7.42275 43.5729951 5.25675 53.0121171 13.76325 48.2154341 18.52125 50.8995805"></polyline>
                    <path d="M43.88115,31.7557951 L43.88115,23.438722 C43.88115,21.137161 38.09865,18.1445268 33.37665,18.1445268 C28.65615,18.1445268 22.88115,21.137161 22.88115,23.438722 L22.88115,31.7557951" id="Stroke-7" stroke="#FFFFFF"></path>
                    <path d="M33.38115,-0.000302439024 C30.27915,-0.000302439024 27.38115,2.19389268 27.38115,4.90072195 L27.38115,8.70994146 C27.38115,11.4167707 30.27915,13.6109659 33.38115,13.6109659 C36.48315,13.6109659 39.38115,11.4167707 39.38115,8.70994146 L39.38115,4.90072195 C39.38115,2.19389268 36.48315,-0.000302439024 33.38115,-0.000302439024 Z" id="Stroke-9" stroke="#FFFFFF"></path>
                </g>
            </g>
        </g>
    </g>
</svg>