<svg viewBox="0 0 56 56" version="1.1" xmlns="http://www.w3.org/2000/svg" xmlns:xlink="http://www.w3.org/1999/xlink">
    <g id="Page-1" stroke="none" stroke-width="1" fill="none" fill-rule="evenodd">
        <g id="Онлайн-образование-ТП+Курсон-1440" transform="translate(-746.000000, -128.000000)" fill="#FFFFFF" fill-rule="nonzero">
            <g id="Group-2" transform="translate(746.000000, 128.000000)">
                <path d="M28,0 C12.5362344,0 0,12.5360156 0,28 C0,43.4639844 12.5362344,56 28,56 C43.4637656,56 56,43.4639844 56,28 C56,12.5360156 43.4637656,0 28,0 Z M37.7104,29.1840486 L24.2704,38.2253699 C23.99845,38.4081176 23.689225,38.5 23.38,38.5 C23.09986,38.5 22.8193,38.424957 22.56541,38.2730628 C22.03138,37.9543563 21.7,37.3494919 21.7,36.6917357 L21.7,18.6090931 C21.7,17.951337 22.03138,17.3464726 22.56541,17.027766 C23.09944,16.7072512 23.752435,16.7266901 24.2704,17.075459 L37.7104,26.1167803 C38.20138,26.4479187 38.5,27.0271284 38.5,27.6504144 C38.5,28.2737005 38.20138,28.8530232 37.7104,29.1840486 Z" id="play-icon"></path>
            </g>
        </g>
    </g>
</svg>