<?xml version="1.0" encoding="UTF-8"?>
<svg viewBox="0 0 68 65" version="1.1" xmlns="http://www.w3.org/2000/svg" xmlns:xlink="http://www.w3.org/1999/xlink">
    <g id="Page-1" stroke="none" stroke-width="1" fill="none" fill-rule="evenodd">
        <g id="Онлайн-образование-СРО+Курсон-1440" transform="translate(-687.000000, -1930.000000)" stroke-width="3">
            <g id="Group-8" transform="translate(570.000000, 1886.000000)">
                <g id="shop" transform="translate(119.000000, 46.000000)">
                    <polyline id="Stroke-1" stroke="#FFFFFF" points="41.1279404 24.12706 41.1279404 12.92706 0.40453617 12.92706 0.40453617 60.52706 28.4896426 60.52706"></polyline>
                    <polygon id="Stroke-3" stroke="#FFFFFF" points="31.2978723 60.52692 63.5957447 60.52692 63.5957447 26.92692 31.2978723 26.92692"></polygon>
                    <path d="M55.1704936,33.92706 L55.1704936,42.34386 C55.1704936,46.53546 51.6598553,50.21326 47.4555149,50.21326 C43.2511745,50.21326 39.7236851,46.53546 39.7236851,42.34386 L39.7236851,33.92706" id="Stroke-5" stroke="#76BC21"></path>
                    <path d="M42.5321957,33.92706 L36.9151745,33.92706" id="Stroke-6" stroke="#FFFFFF"></path>
                    <path d="M57.9790043,33.92706 L52.361983,33.92706" id="Stroke-7" stroke="#FFFFFF"></path>
                    <path d="M29.8938979,19.92706 L29.8938979,9.82466 C29.8938979,4.80566 25.7443234,0.39986 20.7760681,0.39986 C15.8078128,0.39986 11.6385787,4.80566 11.6385787,9.82466 L11.6385787,19.92706" id="Stroke-8" stroke="#76BC21"></path>
                    <path d="M14.4470894,19.92706 L8.83006809,19.92706" id="Stroke-9" stroke="#FFFFFF"></path>
                    <path d="M32.7024085,19.92706 L27.0853872,19.92706" id="Stroke-10" stroke="#FFFFFF"></path>
                </g>
            </g>
        </g>
    </g>
</svg>