<?xml version="1.0" encoding="UTF-8"?>
<svg viewBox="0 0 113 40" version="1.1" xmlns="http://www.w3.org/2000/svg" xmlns:xlink="http://www.w3.org/1999/xlink">
    <defs>
        <polygon id="path-1" points="2.54273308 4.09648276 2.54273308 0.534413793 0.299165602 0.534413793 0.299165602 4.09648276 2.54273308 4.09648276"></polygon>
        <polygon id="path-3" points="8.82625798 11.7246207 8.82625798 0.570137931 0.154085994 0.570137931 0.154085994 11.7246207 8.82625798 11.7246207"></polygon>
    </defs>
    <g id="Page-1" stroke="none" stroke-width="1" fill="none" fill-rule="evenodd">
        <g id="Онлайн-образование-СРО+Курсон-1440" transform="translate(-610.000000, -16.000000)">
            <g id="Group-16" transform="translate(431.000000, 16.000000)">
                <g id="sp" transform="translate(179.000000, 0.000000)">
                    <polygon id="Fill-1" fill="#057CAB" points="38.7743755 0.689793103 17.7538902 33.313931 38.7743755 33.313931"></polygon>
                    <g id="Group-46" transform="translate(0.000000, 0.285517)">
                        <path d="M10.9852073,0.404137931 L37.6517888,0.404137931 L0.00020945083,39.3103448 L0.00020945083,11.962069 C0.00020945083,11.962069 1.05374713,1.00896552 10.9852073,0.404137931" id="Fill-2" fill="#057CAB"></path>
                        <g id="Group-6" transform="translate(110.310771, 28.965517)">
                            <mask id="mask-2" fill="white">
                                <use xlink:href="#path-1"></use>
                            </mask>
                            <g id="Clip-5"></g>
                            <path d="M1.35270328,3.72613793 L1.14953597,3.72613793 L0.774618987,3.72613793 L0.774618987,2.38268966 L1.14953597,2.38268966 L1.35270328,2.38268966 C1.72762026,2.44958621 2.03341848,2.65096552 2.03341848,3.05441379 C2.03341848,3.49096552 1.72762026,3.65924138 1.35270328,3.72613793 L1.35270328,3.72613793 Z M0.774618987,0.904068966 L1.14953597,0.904068966 L1.35270328,0.904068966 C1.69201362,0.937862069 1.93148574,1.10613793 1.93148574,1.442 C1.93148574,1.74337931 1.72762026,1.97924138 1.35270328,2.01303448 C1.28498084,2.04613793 1.21725841,2.04613793 1.18234994,2.04613793 L0.774618987,2.04613793 L0.774618987,0.904068966 Z M1.79464453,2.18062069 C2.16956152,2.04613793 2.40763729,1.74337931 2.40763729,1.4082069 C2.40763729,1.13993103 2.27149425,0.937862069 2.10114091,0.80337931 C1.93148574,0.635103448 1.69201362,0.568206897 1.35270328,0.534413793 L1.14953597,0.534413793 C0.808829289,0.534413793 0.503031077,0.568206897 0.299165602,0.602 L0.299165602,4.02889655 C0.468820775,4.06268966 0.706896552,4.09648276 1.01339293,4.09648276 C1.1146275,4.09648276 1.25077054,4.06268966 1.35270328,4.06268966 C1.72762026,4.02889655 2.03341848,3.9282069 2.23728395,3.75993103 C2.40763729,3.59234483 2.54308216,3.35717241 2.54308216,3.05441379 C2.54308216,2.55027586 2.13535121,2.28131034 1.79464453,2.18062069 L1.79464453,2.18062069 Z" id="Fill-4" fill="#000000" mask="url(#mask-2)"></path>
                        </g>
                        <path d="M107.174454,32.6916552 L107.140244,32.6916552 C106.426016,32.6916552 106.018285,32.0537241 106.018285,31.2806207 C106.018285,30.542 106.391806,29.8357931 107.174454,29.8357931 C107.922193,29.8357931 108.296412,30.5757931 108.296412,31.2468276 C108.296412,32.0537241 107.887983,32.6916552 107.174454,32.6916552 M107.174454,29.4661379 C106.221453,29.499931 105.541436,30.2054483 105.541436,31.3144138 C105.541436,32.3557931 106.18794,33.062 107.140244,33.062 L107.174454,33.062 C108.058336,33.062 108.772564,32.4226897 108.772564,31.2468276 C108.772564,30.2054483 108.160269,29.4661379 107.174454,29.4661379" id="Fill-7" fill="#000000"></path>
                        <path d="M102.684037,31.146 L104.010559,29.5335862 L103.466685,29.5335862 L102.242794,31.0791034 L102.106651,31.0791034 L102.106651,29.5335862 L101.664012,29.5335862 L101.664012,33.028069 L102.106651,33.028069 L102.106651,31.4149655 L102.242794,31.4149655 C102.854391,31.4149655 103.092467,31.7508276 103.22861,32.1873793 C103.330542,32.4563448 103.432475,32.7928966 103.569316,33.028069 L104.04477,33.028069 C103.908627,32.6915172 103.806694,32.3894483 103.670551,32.0197931 C103.466685,31.5494483 103.262122,31.2135862 102.684037,31.146" id="Fill-9" fill="#000000"></path>
                        <path d="M98.0245943,31.3146897 C97.7530064,31.7512414 97.5477446,32.1202069 97.3438791,32.4905517 C97.3787876,32.0195172 97.3787876,31.5491724 97.3787876,31.011931 L97.3787876,29.5333103 L96.9703585,29.5333103 L96.9703585,33.0277931 L97.44651,33.0277931 L98.5684683,31.2808966 C98.8072422,30.911931 99.045318,30.5084828 99.2149732,30.1050345 C99.1807629,30.5415862 99.1807629,30.9781379 99.1807629,31.5491724 L99.1807629,33.0277931 L99.6227041,33.0277931 L99.6227041,29.5333103 L99.1465526,29.5333103 L98.0245943,31.3146897 Z" id="Fill-11" fill="#000000"></path>
                        <polygon id="Fill-13" fill="#000000" points="94.8283048 29.5336552 94.3849672 29.5336552 94.3849672 32.6246897 93.2294968 32.6246897 93.2294968 29.5336552 92.7861592 29.5336552 92.7861592 32.6246897 91.6306888 32.6246897 91.6306888 29.5336552 91.1880494 29.5336552 91.1880494 33.0281379 94.7249757 33.0281379 94.7584879 33.8681379 95.0998927 33.8681379 95.1334049 32.6577931 94.8283048 32.6577931"></polygon>
                        <path d="M88.1261575,32.6916552 L87.9229902,32.6916552 L87.5494696,32.6916552 L87.5494696,31.3482069 L87.9229902,31.3482069 L88.1261575,31.3482069 C88.5352848,31.4151034 88.8403848,31.6164828 88.8403848,32.019931 C88.8403848,32.4564828 88.5352848,32.6247586 88.1261575,32.6916552 L88.1261575,32.6916552 Z M87.5494696,29.8695862 L87.9565023,29.8695862 L88.1261575,29.8695862 C88.5010745,29.9033793 88.7398484,30.0716552 88.7398484,30.4075172 C88.7398484,30.7088966 88.5010745,30.9447586 88.1261575,30.9785517 C88.0919472,31.0116552 88.0242248,31.0116552 87.9565023,31.0116552 L87.5494696,31.0116552 L87.5494696,29.8695862 Z M88.6037054,31.1461379 C88.9772261,31.0116552 89.1817897,30.7088966 89.1817897,30.3737241 C89.1817897,30.1054483 89.0791588,29.9033793 88.9088054,29.7688966 C88.70494,29.6006207 88.4668642,29.5337241 88.1261575,29.499931 L87.9229902,29.499931 C87.6164938,29.499931 87.3106956,29.5337241 87.106132,29.5675172 L87.106132,32.9944138 C87.242275,33.0282069 87.481049,33.062 87.7868472,33.062 C87.9229902,33.062 88.0242248,33.0282069 88.1261575,33.0282069 C88.5352848,32.9944138 88.8403848,32.8937241 89.0114364,32.7254483 C89.216,32.5578621 89.3179327,32.3226897 89.3179327,32.019931 C89.3179327,31.5157931 88.9430158,31.2468276 88.6037054,31.1461379 L88.6037054,31.1461379 Z" id="Fill-15" fill="#000000"></path>
                        <path d="M83.6371375,32.6916552 C82.9229102,32.6916552 82.5151792,32.0537241 82.5151792,31.2806207 C82.5151792,30.542 82.8886999,29.8357931 83.6371375,29.8357931 C84.3855751,29.8357931 84.7590958,30.5757931 84.7590958,31.2468276 C84.7590958,32.0537241 84.3513648,32.6916552 83.6371375,32.6916552 M83.6713478,29.4661379 L83.6371375,29.4661379 C82.7190447,29.499931 82.0390277,30.2054483 82.0390277,31.3144138 C82.0390277,32.3557931 82.6855326,33.062 83.6029272,33.062 L83.6371375,33.062 C84.5217182,33.062 85.2366437,32.4226897 85.2366437,31.2468276 C85.2366437,30.2054483 84.6236509,29.4661379 83.6713478,29.4661379" id="Fill-17" fill="#000000"></path>
                        <path d="M79.2837718,31.2806897 L79.0114857,31.2806897 C78.8753427,31.2806897 78.7398978,31.2806897 78.6365688,31.2468966 L78.6365688,29.9034483 C78.7398978,29.8696552 78.8753427,29.8696552 79.0792082,29.8696552 L79.2837718,29.8696552 C79.6579906,29.9365517 79.8953682,30.1386207 79.8953682,30.542069 C79.8953682,30.9448276 79.6922009,31.2131034 79.2837718,31.2806897 M79.2837718,29.5 L79.0792082,29.5 C78.7049894,29.5 78.398493,29.5337931 78.1946275,29.5675862 L78.1946275,33.0282759 L78.6365688,33.0282759 L78.6365688,31.6165517 C78.7398978,31.6503448 78.8753427,31.6503448 79.0114857,31.6503448 L79.2837718,31.6503448 C79.6237803,31.5827586 79.8953682,31.482069 80.0999319,31.2806897 C80.2695871,31.0793103 80.3729161,30.8448276 80.3729161,30.542069 C80.3729161,30.2048276 80.2360749,29.9703448 80.0657216,29.802069 C79.8953682,29.6344828 79.6237803,29.5337931 79.2837718,29.5" id="Fill-19" fill="#000000"></path>
                        <path d="M74.5554891,31.3146897 C74.2839012,31.7512414 74.0793376,32.1202069 73.9089842,32.4905517 L73.8747739,32.4905517 C73.9089842,32.0195172 73.9438927,31.5491724 73.9438927,31.011931 L73.9438927,29.5333103 L73.5012533,29.5333103 L73.5012533,33.0277931 L73.978103,33.0277931 L75.0993631,31.2808966 C75.3374389,30.911931 75.5755147,30.5084828 75.7472644,30.1050345 C75.7116577,30.5415862 75.7116577,30.9781379 75.7116577,31.5491724 L75.7116577,33.0277931 L76.1542971,33.0277931 L76.1542971,29.5333103 L75.6774474,29.5333103 L74.5554891,31.3146897 Z" id="Fill-21" fill="#000000"></path>
                        <polygon id="Fill-23" fill="#000000" points="69.2496807 29.9033793 70.3046147 29.9033793 70.3046147 33.0282069 70.7800681 33.0282069 70.7800681 29.9033793 71.834304 29.9033793 71.834304 29.5337241 69.2496807 29.5337241"></polygon>
                        <path d="M66.5633342,31.146 L67.8884598,29.5335862 L67.345284,29.5335862 L66.1542069,31.0791034 L65.9852499,31.0791034 L65.9852499,29.5335862 L65.5426105,29.5335862 L65.5426105,33.028069 L65.9852499,33.028069 L65.9852499,31.4149655 L66.1542069,31.4149655 C66.7329894,31.4149655 66.9710651,31.7508276 67.1407203,32.1873793 C67.2098391,32.4563448 67.3110736,32.7928966 67.4472167,33.028069 L67.9575785,33.028069 C67.7879234,32.6915172 67.6852925,32.3894483 67.5491494,32.0197931 C67.3787961,31.5494483 67.1407203,31.2135862 66.5633342,31.146" id="Fill-25" fill="#000000"></path>
                        <polygon id="Fill-27" fill="#000000" points="62.1751997 31.3813793 63.5352337 31.3813793 63.5352337 31.0117241 62.1751997 31.0117241 62.1751997 29.9034483 63.6378646 29.9034483 63.6378646 29.5337931 61.7332584 29.5337931 61.7332584 33.0282759 63.7048889 33.0282759 63.7048889 32.6248276 62.1751997 32.6248276"></polygon>
                        <path d="M58.2630072,32.6916552 C57.5501762,32.6916552 57.1417471,32.0537241 57.1417471,31.2806207 C57.1417471,30.542 57.5159659,29.8357931 58.2630072,29.8357931 C59.0114449,29.8357931 59.3856637,30.5757931 59.3856637,31.2468276 C59.3856637,32.0537241 58.9779327,32.6916552 58.2630072,32.6916552 M58.2972175,29.4661379 L58.2630072,29.4661379 C57.3456126,29.499931 56.6648974,30.2054483 56.6648974,31.3144138 C56.6648974,32.3557931 57.3114023,33.062 58.2294951,33.062 L58.2630072,33.062 C59.1482861,33.062 59.8625134,32.4226897 59.8625134,31.2468276 C59.8625134,30.2054483 59.2502188,29.4661379 58.2972175,29.4661379" id="Fill-29" fill="#000000"></path>
                        <path d="M53.9444802,31.2806897 L53.671496,31.2806897 C53.5353529,31.2806897 53.399908,31.2806897 53.2979753,31.2468966 L53.2979753,29.9034483 C53.399908,29.8696552 53.5353529,29.8696552 53.7399166,29.8696552 L53.9444802,29.8696552 C54.3180009,29.9365517 54.5567748,30.1386207 54.5567748,30.542069 C54.5567748,30.9448276 54.3522112,31.2131034 53.9444802,31.2806897 M53.9444802,29.5 L53.7399166,29.5 C53.3663959,29.5 53.0592014,29.5337931 52.8553359,29.5675862 L52.8553359,33.0282759 L53.2979753,33.0282759 L53.2979753,31.6165517 C53.399908,31.6503448 53.5353529,31.6503448 53.671496,31.6503448 L53.9444802,31.6503448 C54.2837905,31.5827586 54.5567748,31.482069 54.7599421,31.2806897 C54.9302954,31.0793103 55.0329264,30.8448276 55.0329264,30.542069 C55.0329264,30.2048276 54.8960851,29.9703448 54.72643,29.802069 C54.5567748,29.6344828 54.2837905,29.5337931 53.9444802,29.5" id="Fill-31" fill="#000000"></path>
                        <polygon id="Fill-33" fill="#000000" points="48.263685 33.028069 48.7063244 33.028069 48.7063244 29.9032414 50.3379464 29.9032414 50.3379464 33.028069 50.8147961 33.028069 50.8147961 29.5335862 48.263685 29.5335862"></polygon>
                        <g id="Group-37" transform="translate(104.027246, 14.482759)">
                            <mask id="mask-4" fill="white">
                                <use xlink:href="#path-3"></use>
                            </mask>
                            <g id="Clip-36"></g>
                            <polygon id="Fill-35" fill="#000000" mask="url(#mask-4)" points="0.154085994 0.570137931 0.154085994 2.68668966 3.18134866 2.68668966 3.18134866 11.7246207 5.73245977 11.7246207 5.73245977 2.68668966 8.8267467 2.68668966 8.8267467 0.570137931"></polygon>
                        </g>
                        <polygon id="Fill-38" fill="#000000" points="99.4536773 24.1241379 94.8283048 24.1241379 94.8283048 21.5034483 98.9768276 21.5034483 98.9768276 19.4544828 94.8283048 19.4544828 94.8283048 17.1358621 99.2149034 17.1358621 99.2149034 15.0531034 92.2771937 15.0531034 92.2771937 26.2075862 99.4536773 26.2075862"></polygon>
                        <path d="M82.3110345,24.4265517 C82.1748914,24.4265517 82.0052363,24.4603448 81.8683951,24.4603448 C81.4264538,24.4603448 81.1199574,24.4603448 80.8483695,24.4265517 L80.8483695,21.2686207 L81.732252,21.2686207 C81.9368157,21.2686207 82.1406811,21.3017241 82.3110345,21.3017241 C83.2975479,21.4362069 84.0117752,21.9072414 84.0117752,22.847931 C84.0117752,23.8555172 83.2626394,24.3258621 82.3110345,24.4265517 L82.3110345,24.4265517 Z M80.8483695,16.8672414 C81.0857471,16.8334483 81.3929417,16.7996552 81.9368157,16.7996552 C82.0729587,16.7996552 82.2091017,16.8334483 82.3110345,16.8334483 C83.2291273,16.9010345 83.7736994,17.3375862 83.7736994,18.11 C83.7736994,18.7817241 83.2626394,19.2865517 82.3110345,19.4203448 C82.1406811,19.4541379 81.9368157,19.487931 81.6987399,19.487931 L80.8483695,19.487931 L80.8483695,16.8672414 Z M84.4523201,20.1934483 L84.4523201,20.1596552 C85.7453299,19.7231034 86.3241124,18.7817241 86.3241124,17.7741379 C86.3241124,16.7672414 85.7453299,16.027931 84.9640783,15.6231034 C84.2833631,15.187931 83.4665049,15.0189655 82.3110345,14.9858621 L81.6303193,14.9858621 C80.3729161,14.9858621 79.0114857,15.0865517 78.3314687,15.2210345 L78.3314687,26.1403448 C78.909553,26.2410345 79.8269476,26.3086207 81.0857471,26.3086207 C81.5290847,26.3086207 81.9368157,26.3086207 82.3110345,26.2748276 C83.8414219,26.1734483 84.8614474,25.8382759 85.5421626,25.3010345 C86.2221797,24.7617241 86.6983312,23.9562069 86.6983312,22.9486207 C86.6983312,21.5037931 85.7453299,20.5624138 84.4523201,20.1934483 L84.4523201,20.1934483 Z" id="Fill-40" fill="#000000"></path>
                        <path d="M67.4469374,24.3931724 L67.4127271,24.3931724 C65.7126845,24.3593793 64.692659,22.8476552 64.692659,20.6642069 C64.692659,18.5131724 65.7126845,16.8669655 67.4127271,16.8669655 C69.1811903,16.8669655 70.1334934,18.6138621 70.1334934,20.595931 C70.1334934,22.780069 69.1476782,24.3931724 67.4469374,24.3931724 M67.4811477,14.8842069 L67.4127271,14.8842069 C64.1145747,14.9186897 62.0047067,17.4048966 62.0047067,20.7304138 C62.0047067,23.8897241 63.9435232,26.375931 67.3114926,26.375931 L67.4127271,26.375931 C70.6438553,26.3414483 72.855656,24.1242069 72.855656,20.5297241 C72.855656,17.4386897 70.9503516,14.8842069 67.4811477,14.8842069" id="Fill-42" fill="#000000"></path>
                        <path d="M54.1476475,26.3756552 C55.54259,26.3756552 56.5633138,26.106 57.0394653,25.8722069 L56.6310362,23.9232414 C56.1548846,24.123931 55.3045143,24.2922069 54.5567748,24.2922069 C52.2772516,24.2922069 50.9165194,22.8818621 50.9165194,20.663931 C50.9165194,18.1777241 52.5153274,16.968069 54.5225645,16.968069 C55.4406573,16.968069 56.1548846,17.1694483 56.6310362,17.3708276 L57.141398,15.388069 C56.6987586,15.1542759 55.7464555,14.883931 54.4206318,14.883931 C50.98494,14.883931 48.2634755,17.0018621 48.2634755,20.7977241 C48.2634755,23.9563448 50.2707126,26.3756552 54.1476475,26.3756552" id="Fill-44" fill="#000000"></path>
                    </g>
                </g>
            </g>
        </g>
    </g>
</svg>