<?xml version="1.0" encoding="UTF-8"?>
<svg viewBox="0 0 122 122" version="1.1" xmlns="http://www.w3.org/2000/svg" xmlns:xlink="http://www.w3.org/1999/xlink">
    <g id="Page-1" stroke="none" stroke-width="1" fill="none" fill-rule="evenodd">
        <g id="Онлайн-образование-СРО+Курсон-1440" transform="translate(-659.000000, -667.000000)">
            <g id="Group-7" transform="translate(177.000000, 580.000000)">
                <g id="Group-6-Copy" transform="translate(393.000000, 88.000000)">
                    <g id="what-icon-2" transform="translate(90.000000, 0.000000)">
                        <g id="Group-15" transform="translate(31.000000, 35.000000)" stroke-width="3">
                            <path d="M57.7732727,17.3330667 C57.7732727,26.9064 50.1014545,34.6664 40.6369091,34.6664 C31.1723636,34.6664 23.5005455,26.9064 23.5005455,17.3330667 C23.5005455,7.75973333 31.1723636,-0.000266666667 40.6369091,-0.000266666667 C50.1014545,-0.000266666667 57.7732727,7.75973333 57.7732727,17.3330667 Z" id="Stroke-1" stroke="#76BC21"></path>
                            <path d="M11.63625,27.9997333 C11.63625,30.2090667 13.4065682,31.9997333 15.5907955,31.9997333 C17.7750227,31.9997333 19.5453409,30.2090667 19.5453409,27.9997333 C19.5453409,25.7917333 17.7750227,23.9997333 15.5907955,23.9997333 C13.4065682,23.9997333 11.63625,25.7917333 11.63625,27.9997333 Z" id="Stroke-3" stroke="#000000"></path>
                            <path d="M19.9199682,12.4358667 L17.8807409,16.2372 C16.5902409,15.9772 15.24965,15.9332 13.9077409,16.1292 L12.0675591,12.2292 L7.77160455,13.8985333 L8.98565,18.0412 C7.85860455,18.8038667 6.89369545,19.7452 6.10542273,20.8118667 L2.07442273,19.3692 L0.202604545,23.6225333 L3.96205909,25.6852 C3.70633182,26.9905333 3.66151364,28.3465333 3.85528636,29.7025333 L-0.000395454545,31.5652 L1.64996818,35.9092 L5.74687727,34.6825333 C6.50087727,35.8212 7.43019545,36.7972 8.48474091,37.5945333 L7.05846818,41.6718667 L11.26215,43.5652 L13.3013773,39.7625333 C14.5918773,40.0212 15.9324682,40.0678667 17.2756955,39.8705333 L19.1158773,43.7705333 L23.4105136,42.1012 L22.1977864,37.9598667 C23.3235136,37.1945333 24.2884227,36.2545333 25.0780136,35.1878667 L29.1076955,36.6305333" id="Stroke-5" stroke="#000000"></path>
                            <path d="M44.2489909,37.4033333 C44.3135818,38.806 43.7124909,40.2153333 42.5155818,41.1193333 C40.6015818,42.5673333 37.8914,42.1713333 36.4624909,40.2366667 C35.8706273,39.434 35.5911727,38.4926667 35.6043545,37.5633333" id="Stroke-7" stroke="#000000"></path>
                            <path d="M30.8876364,41.0778667 L28.0443182,42.9712 L30.4631818,46.6885333 L33.3065,44.7952 C34.0710455,45.5338667 34.9581818,46.1512 35.9468182,46.6098667 L35.2600455,49.9792 L39.5691818,50.8778667 L40.2559545,47.5085333 C41.3434545,47.4832 42.3993182,47.2712 43.3905909,46.8978667 L45.2610909,49.7738667 L48.9361818,47.3272 L47.0656818,44.4525333 C47.7946364,43.6792 48.4049545,42.7818667 48.8597273,41.7818667 L52.1907727,42.4765333 L53.0779091,38.1178667 L49.7481818,37.4245333" id="Stroke-9" stroke="#000000"></path>
                            <path d="M47.2278182,25.3330667 L47.2278182,22.6664 C47.2278182,19.9997333 43.6001818,18.6664 40.6369091,18.6664 C37.6736364,18.6664 34.046,19.9997333 34.046,22.6664 L34.046,25.3330667" id="Stroke-11" stroke="#76BC21"></path>
                            <path d="M40.63625,18.6664 C43.01425,18.6664 44.5907955,16.8757333 44.5907955,14.6664 L44.5907955,13.3330667 C44.5907955,11.1250667 43.01425,9.33306667 40.63625,9.33306667 C38.2595682,9.33306667 36.6817045,11.1250667 36.6817045,13.3330667 L36.6817045,14.6664 C36.6817045,16.8757333 38.25825,18.6664 40.63625,18.6664 Z" id="Stroke-13" stroke="#76BC21"></path>
                        </g>
                    </g>
                </g>
            </g>
        </g>
    </g>
</svg>