<?xml version="1.0" encoding="UTF-8"?>
<svg viewBox="0 0 122 122" version="1.1" xmlns="http://www.w3.org/2000/svg" xmlns:xlink="http://www.w3.org/1999/xlink">
    <g id="Page-1" stroke="none" stroke-width="1" fill="none" fill-rule="evenodd">
        <g id="Онлайн-образование-СРО+Курсон-1440" transform="translate(-1052.000000, -667.000000)">
            <g id="Group-7" transform="translate(177.000000, 580.000000)">
                <g id="Group-6-Copy-2" transform="translate(786.000000, 88.000000)">
                    <g id="what-icon-3" transform="translate(90.000000, 0.000000)">
                        <g id="Group-13" transform="translate(37.000000, 38.000000)" stroke-width="3">
                            <polyline id="Stroke-1" stroke="#000000" points="8.47368421 36 0 36 0 0 46 0 46 36 37.5263158 36"></polyline>
                            <path d="M35,33 C35,39.0756667 30.0756667,44 24,44 C17.9243333,44 13,39.0756667 13,33 C13,26.9255556 17.9243333,22 24,22 C30.0756667,22 35,26.9255556 35,33 Z" id="Stroke-3" stroke="#76BC21"></path>
                            <polyline id="Stroke-5" stroke="#76BC21" points="29 43 29 55 24 51.4 19 55 19 43"></polyline>
                            <polyline id="Stroke-7" stroke="#76BC21" points="19 33.5714286 22.75 37 29 29"></polyline>
                            <path d="M14,10 L33,10" id="Stroke-9" stroke="#000000"></path>
                            <path d="M18,15 L30,15" id="Stroke-11" stroke="#000000"></path>
                        </g>
                    </g>
                </g>
            </g>
        </g>
    </g>
</svg>