<?xml version="1.0" encoding="UTF-8"?>
<svg viewBox="0 0 122 122" version="1.1" xmlns="http://www.w3.org/2000/svg" xmlns:xlink="http://www.w3.org/1999/xlink">
    <g id="Page-1" stroke="none" stroke-width="1" fill="none" fill-rule="evenodd">
        <g id="Онлайн-образование-СРО+Курсон-1440" transform="translate(-266.000000, -667.000000)">
            <g id="Group-7" transform="translate(177.000000, 580.000000)">
                <g id="Group-6" transform="translate(0.000000, 88.000000)">
                    <g id="what-icon-1" transform="translate(90.000000, 0.000000)">
                        <g id="Group-15" transform="translate(36.000000, 29.000000)" stroke-width="3">
                            <path d="M9.26238,58.8554677 C10.6382229,58.8554677 11.7540086,59.9635511 11.7540086,61.3320516 C11.7540086,62.6988044 10.6382229,63.8086356 9.26238,63.8086356 C7.88653714,63.8086356 6.77075143,62.6988044 6.77075143,61.3320516 C6.77075143,59.9635511 7.88653714,58.8554677 9.26238,58.8554677 Z" id="Stroke-1" stroke="#000000"></path>
                            <path d="M23.80344,58.8554677 C25.1792829,58.8554677 26.2933114,59.9635511 26.2933114,61.3320516 C26.2933114,62.6988044 25.1792829,63.8086356 23.80344,63.8086356 C22.4293543,63.8086356 21.3153257,62.6988044 21.3153257,61.3320516 C21.3153257,59.9635511 22.4293543,58.8554677 23.80344,58.8554677 Z" id="Stroke-3" stroke="#000000"></path>
                            <path d="M38.3462571,58.8554677 C39.7221,58.8554677 40.8378857,59.9635511 40.8378857,61.3320516 C40.8378857,62.6988044 39.7221,63.8086356 38.3462571,63.8086356 C36.9704143,63.8086356 35.8546286,62.6988044 35.8546286,61.3320516 C35.8546286,59.9635511 36.9704143,58.8554677 38.3462571,58.8554677 Z" id="Stroke-5" stroke="#000000"></path>
                            <path d="M23.80344,44.2025501 L23.80344,58.5080119" id="Stroke-7" stroke="#000000"></path>
                            <path d="M10.2903086,57.9389394 C11.0318229,56.7836663 12.1054371,55.741998 13.4338371,54.8663674 C14.7587229,53.9924846 16.3401514,53.2846395 18.09378,52.7970129 C19.8491657,52.3058908 21.7785086,52.0367349 23.8027371,52.0367349 C25.83048,52.0367349 27.7580657,52.3058908 29.5116943,52.7970129 C31.26708,53.2846395 32.8485086,53.9924846 34.1751514,54.8663674 C35.5035514,55.741998 36.5771657,56.7836663 37.31868,57.9389394" id="Stroke-9" stroke="#000000"></path>
                            <path d="M23.80344,0.0510188679 C36.91524,0.0510188679 47.5441971,13.7639881 47.5441971,28.2354876 C47.5441971,42.7052393 36.91524,43.7434121 23.80344,43.7434121 C10.6933971,43.7434121 0.06444,42.7052393 0.06444,28.2354876 C0.06444,13.7639881 10.6933971,0.0510188679 23.80344,0.0510188679 Z" id="Stroke-11" stroke="#76BC21"></path>
                            <path d="M39.9608957,32.1508322 C37.8927386,33.383007 35.4327386,34.1817358 32.6968671,34.6711102 C29.9662671,35.1622324 26.9597957,35.344 23.8039671,35.344 C20.6498957,35.344 17.6434243,35.1622324 14.90931,34.6711102 C12.1751957,34.1817358 9.71519571,33.383007 7.64703857,32.1508322" id="Stroke-13" stroke="#76BC21"></path>
                        </g>
                    </g>
                </g>
            </g>
        </g>
    </g>
</svg>